<svg width="59" height="11" viewBox="0 0 59 11" fill="none" xmlns="http://www.w3.org/2000/svg">
<path d="M4.93086 0.60454C5.11427 0.232917 5.64419 0.232917 5.8276 0.60454L7.02625 3.03327C7.09908 3.18085 7.23986 3.28313 7.40272 3.3068L10.083 3.69626C10.4931 3.75585 10.6569 4.25984 10.3601 4.54911L8.42063 6.43961C8.30279 6.55448 8.24902 6.71998 8.27684 6.88218L8.73468 9.55162C8.80474 9.96007 8.37602 10.2716 8.00921 10.0787L5.6119 8.81837C5.46624 8.74179 5.29222 8.74179 5.14656 8.81837L2.74926 10.0787C2.38244 10.2716 1.95373 9.96007 2.02378 9.55162L2.48162 6.88218C2.50944 6.71998 2.45567 6.55448 2.33783 6.43961L0.398367 4.54911C0.101608 4.25984 0.265363 3.75585 0.675473 3.69626L3.35574 3.3068C3.5186 3.28313 3.65938 3.18085 3.73221 3.03327L4.93086 0.60454ZM16.9309 0.60454C17.1143 0.232917 17.6442 0.232917 17.8276 0.60454L19.0263 3.03327C19.0991 3.18085 19.2399 3.28313 19.4027 3.3068L22.083 3.69626C22.4931 3.75585 22.6569 4.25984 22.3601 4.54911L20.4206 6.43961C20.3028 6.55448 20.249 6.71998 20.2768 6.88218L20.7347 9.55162C20.8047 9.96007 20.376 10.2716 20.0092 10.0787L17.6119 8.81837C17.4662 8.74179 17.2922 8.74179 17.1466 8.81837L14.7493 10.0787C14.3824 10.2716 13.9537 9.96007 14.0238 9.55162L14.4816 6.88218C14.5094 6.71998 14.4557 6.55448 14.3378 6.43961L12.3984 4.54911C12.1016 4.25984 12.2654 3.75585 12.6755 3.69626L15.3557 3.3068C15.5186 3.28313 15.6594 3.18085 15.7322 3.03327L16.9309 0.60454ZM28.9309 0.60454C29.1143 0.232917 29.6442 0.232917 29.8276 0.60454L31.0263 3.03327C31.0991 3.18085 31.2399 3.28313 31.4027 3.3068L34.083 3.69626C34.4931 3.75585 34.6569 4.25984 34.3601 4.54911L32.4206 6.43961C32.3028 6.55448 32.249 6.71998 32.2768 6.88218L32.7347 9.55162C32.8047 9.96007 32.376 10.2716 32.0092 10.0787L29.6119 8.81837C29.4662 8.74179 29.2922 8.74179 29.1466 8.81837L26.7493 10.0787C26.3824 10.2716 25.9537 9.96007 26.0238 9.55162L26.4816 6.88218C26.5094 6.71998 26.4557 6.55448 26.3378 6.43961L24.3984 4.54911C24.1016 4.25984 24.2654 3.75585 24.6755 3.69626L27.3557 3.3068C27.5186 3.28313 27.6594 3.18085 27.7322 3.03327L28.9309 0.60454ZM40.9309 0.60454C41.1143 0.232917 41.6442 0.232917 41.8276 0.60454L43.0262 3.03327C43.0991 3.18085 43.2399 3.28313 43.4027 3.3068L46.083 3.69626C46.4931 3.75585 46.6569 4.25984 46.3601 4.54911L44.4206 6.43961C44.3028 6.55448 44.249 6.71998 44.2768 6.88218L44.7347 9.55162C44.8047 9.96007 44.376 10.2716 44.0092 10.0787L41.6119 8.81837C41.4662 8.74179 41.2922 8.74179 41.1466 8.81837L38.7493 10.0787C38.3824 10.2716 37.9537 9.96007 38.0238 9.55162L38.4816 6.88218C38.5094 6.71998 38.4557 6.55448 38.3378 6.43961L36.3984 4.54911C36.1016 4.25984 36.2654 3.75585 36.6755 3.69626L39.3557 3.3068C39.5186 3.28313 39.6594 3.18085 39.7322 3.03327L40.9309 0.60454ZM52.9309 0.60454C53.1143 0.232917 53.6442 0.232917 53.8276 0.60454L55.0262 3.03327C55.0991 3.18085 55.2399 3.28313 55.4027 3.3068L58.083 3.69626C58.4931 3.75585 58.6569 4.25984 58.3601 4.54911L56.4206 6.43961C56.3028 6.55448 56.249 6.71998 56.2768 6.88218L56.7347 9.55162C56.8047 9.96007 56.376 10.2716 56.0092 10.0787L53.6119 8.81837C53.4662 8.74179 53.2922 8.74179 53.1466 8.81837L50.7493 10.0787C50.3824 10.2716 49.9537 9.96007 50.0238 9.55162L50.4816 6.88218C50.5094 6.71998 50.4557 6.55448 50.3378 6.43961L48.3984 4.54911C48.1016 4.25984 48.2654 3.75585 48.6755 3.69626L51.3557 3.3068C51.5186 3.28313 51.6594 3.18085 51.7322 3.03327L52.9309 0.60454Z" fill="#FFC700"/>
<path d="M4.93086 0.60454C5.11427 0.232917 5.64419 0.232917 5.8276 0.60454L7.02625 3.03327C7.09908 3.18085 7.23986 3.28313 7.40272 3.3068L10.083 3.69626C10.4931 3.75585 10.6569 4.25984 10.3601 4.54911L8.42063 6.43961C8.30279 6.55448 8.24902 6.71998 8.27684 6.88218L8.73468 9.55162C8.80474 9.96007 8.37602 10.2716 8.00921 10.0787L5.6119 8.81837C5.46624 8.74179 5.29222 8.74179 5.14656 8.81837L2.74926 10.0787C2.38244 10.2716 1.95373 9.96007 2.02378 9.55162L2.48162 6.88218C2.50944 6.71998 2.45567 6.55448 2.33783 6.43961L0.398367 4.54911C0.101608 4.25984 0.265363 3.75585 0.675473 3.69626L3.35574 3.3068C3.5186 3.28313 3.65938 3.18085 3.73221 3.03327L4.93086 0.60454ZM16.9309 0.60454C17.1143 0.232917 17.6442 0.232917 17.8276 0.60454L19.0263 3.03327C19.0991 3.18085 19.2399 3.28313 19.4027 3.3068L22.083 3.69626C22.4931 3.75585 22.6569 4.25984 22.3601 4.54911L20.4206 6.43961C20.3028 6.55448 20.249 6.71998 20.2768 6.88218L20.7347 9.55162C20.8047 9.96007 20.376 10.2716 20.0092 10.0787L17.6119 8.81837C17.4662 8.74179 17.2922 8.74179 17.1466 8.81837L14.7493 10.0787C14.3824 10.2716 13.9537 9.96007 14.0238 9.55162L14.4816 6.88218C14.5094 6.71998 14.4557 6.55448 14.3378 6.43961L12.3984 4.54911C12.1016 4.25984 12.2654 3.75585 12.6755 3.69626L15.3557 3.3068C15.5186 3.28313 15.6594 3.18085 15.7322 3.03327L16.9309 0.60454ZM28.9309 0.60454C29.1143 0.232917 29.6442 0.232917 29.8276 0.60454L31.0263 3.03327C31.0991 3.18085 31.2399 3.28313 31.4027 3.3068L34.083 3.69626C34.4931 3.75585 34.6569 4.25984 34.3601 4.54911L32.4206 6.43961C32.3028 6.55448 32.249 6.71998 32.2768 6.88218L32.7347 9.55162C32.8047 9.96007 32.376 10.2716 32.0092 10.0787L29.6119 8.81837C29.4662 8.74179 29.2922 8.74179 29.1466 8.81837L26.7493 10.0787C26.3824 10.2716 25.9537 9.96007 26.0238 9.55162L26.4816 6.88218C26.5094 6.71998 26.4557 6.55448 26.3378 6.43961L24.3984 4.54911C24.1016 4.25984 24.2654 3.75585 24.6755 3.69626L27.3557 3.3068C27.5186 3.28313 27.6594 3.18085 27.7322 3.03327L28.9309 0.60454ZM40.9309 0.60454C41.1143 0.232917 41.6442 0.232917 41.8276 0.60454L43.0262 3.03327C43.0991 3.18085 43.2399 3.28313 43.4027 3.3068L46.083 3.69626C46.4931 3.75585 46.6569 4.25984 46.3601 4.54911L44.4206 6.43961C44.3028 6.55448 44.249 6.71998 44.2768 6.88218L44.7347 9.55162C44.8047 9.96007 44.376 10.2716 44.0092 10.0787L41.6119 8.81837C41.4662 8.74179 41.2922 8.74179 41.1466 8.81837L38.7493 10.0787C38.3824 10.2716 37.9537 9.96007 38.0238 9.55162L38.4816 6.88218C38.5094 6.71998 38.4557 6.55448 38.3378 6.43961L36.3984 4.54911C36.1016 4.25984 36.2654 3.75585 36.6755 3.69626L39.3557 3.3068C39.5186 3.28313 39.6594 3.18085 39.7322 3.03327L40.9309 0.60454ZM52.9309 0.60454C53.1143 0.232917 53.6442 0.232917 53.8276 0.60454L55.0262 3.03327C55.0991 3.18085 55.2399 3.28313 55.4027 3.3068L58.083 3.69626C58.4931 3.75585 58.6569 4.25984 58.3601 4.54911L56.4206 6.43961C56.3028 6.55448 56.249 6.71998 56.2768 6.88218L56.7347 9.55162C56.8047 9.96007 56.376 10.2716 56.0092 10.0787L53.6119 8.81837C53.4662 8.74179 53.2922 8.74179 53.1466 8.81837L50.7493 10.0787C50.3824 10.2716 49.9537 9.96007 50.0238 9.55162L50.4816 6.88218C50.5094 6.71998 50.4557 6.55448 50.3378 6.43961L48.3984 4.54911C48.1016 4.25984 48.2654 3.75585 48.6755 3.69626L51.3557 3.3068C51.5186 3.28313 51.6594 3.18085 51.7322 3.03327L52.9309 0.60454Z" fill="#FFC700"/>
<path d="M4.93086 0.60454C5.11427 0.232917 5.64419 0.232917 5.8276 0.60454L7.02625 3.03327C7.09908 3.18085 7.23986 3.28313 7.40272 3.3068L10.083 3.69626C10.4931 3.75585 10.6569 4.25984 10.3601 4.54911L8.42063 6.43961C8.30279 6.55448 8.24902 6.71998 8.27684 6.88218L8.73468 9.55162C8.80474 9.96007 8.37602 10.2716 8.00921 10.0787L5.6119 8.81837C5.46624 8.74179 5.29222 8.74179 5.14656 8.81837L2.74926 10.0787C2.38244 10.2716 1.95373 9.96007 2.02378 9.55162L2.48162 6.88218C2.50944 6.71998 2.45567 6.55448 2.33783 6.43961L0.398367 4.54911C0.101608 4.25984 0.265363 3.75585 0.675473 3.69626L3.35574 3.3068C3.5186 3.28313 3.65938 3.18085 3.73221 3.03327L4.93086 0.60454ZM16.9309 0.60454C17.1143 0.232917 17.6442 0.232917 17.8276 0.60454L19.0263 3.03327C19.0991 3.18085 19.2399 3.28313 19.4027 3.3068L22.083 3.69626C22.4931 3.75585 22.6569 4.25984 22.3601 4.54911L20.4206 6.43961C20.3028 6.55448 20.249 6.71998 20.2768 6.88218L20.7347 9.55162C20.8047 9.96007 20.376 10.2716 20.0092 10.0787L17.6119 8.81837C17.4662 8.74179 17.2922 8.74179 17.1466 8.81837L14.7493 10.0787C14.3824 10.2716 13.9537 9.96007 14.0238 9.55162L14.4816 6.88218C14.5094 6.71998 14.4557 6.55448 14.3378 6.43961L12.3984 4.54911C12.1016 4.25984 12.2654 3.75585 12.6755 3.69626L15.3557 3.3068C15.5186 3.28313 15.6594 3.18085 15.7322 3.03327L16.9309 0.60454ZM28.9309 0.60454C29.1143 0.232917 29.6442 0.232917 29.8276 0.60454L31.0263 3.03327C31.0991 3.18085 31.2399 3.28313 31.4027 3.3068L34.083 3.69626C34.4931 3.75585 34.6569 4.25984 34.3601 4.54911L32.4206 6.43961C32.3028 6.55448 32.249 6.71998 32.2768 6.88218L32.7347 9.55162C32.8047 9.96007 32.376 10.2716 32.0092 10.0787L29.6119 8.81837C29.4662 8.74179 29.2922 8.74179 29.1466 8.81837L26.7493 10.0787C26.3824 10.2716 25.9537 9.96007 26.0238 9.55162L26.4816 6.88218C26.5094 6.71998 26.4557 6.55448 26.3378 6.43961L24.3984 4.54911C24.1016 4.25984 24.2654 3.75585 24.6755 3.69626L27.3557 3.3068C27.5186 3.28313 27.6594 3.18085 27.7322 3.03327L28.9309 0.60454ZM40.9309 0.60454C41.1143 0.232917 41.6442 0.232917 41.8276 0.60454L43.0262 3.03327C43.0991 3.18085 43.2399 3.28313 43.4027 3.3068L46.083 3.69626C46.4931 3.75585 46.6569 4.25984 46.3601 4.54911L44.4206 6.43961C44.3028 6.55448 44.249 6.71998 44.2768 6.88218L44.7347 9.55162C44.8047 9.96007 44.376 10.2716 44.0092 10.0787L41.6119 8.81837C41.4662 8.74179 41.2922 8.74179 41.1466 8.81837L38.7493 10.0787C38.3824 10.2716 37.9537 9.96007 38.0238 9.55162L38.4816 6.88218C38.5094 6.71998 38.4557 6.55448 38.3378 6.43961L36.3984 4.54911C36.1016 4.25984 36.2654 3.75585 36.6755 3.69626L39.3557 3.3068C39.5186 3.28313 39.6594 3.18085 39.7322 3.03327L40.9309 0.60454ZM52.9309 0.60454C53.1143 0.232917 53.6442 0.232917 53.8276 0.60454L55.0262 3.03327C55.0991 3.18085 55.2399 3.28313 55.4027 3.3068L58.083 3.69626C58.4931 3.75585 58.6569 4.25984 58.3601 4.54911L56.4206 6.43961C56.3028 6.55448 56.249 6.71998 56.2768 6.88218L56.7347 9.55162C56.8047 9.96007 56.376 10.2716 56.0092 10.0787L53.6119 8.81837C53.4662 8.74179 53.2922 8.74179 53.1466 8.81837L50.7493 10.0787C50.3824 10.2716 49.9537 9.96007 50.0238 9.55162L50.4816 6.88218C50.5094 6.71998 50.4557 6.55448 50.3378 6.43961L48.3984 4.54911C48.1016 4.25984 48.2654 3.75585 48.6755 3.69626L51.3557 3.3068C51.5186 3.28313 51.6594 3.18085 51.7322 3.03327L52.9309 0.60454Z" fill="#FFC700"/>
<path d="M4.93086 0.60454C5.11427 0.232917 5.64419 0.232917 5.8276 0.60454L7.02625 3.03327C7.09908 3.18085 7.23986 3.28313 7.40272 3.3068L10.083 3.69626C10.4931 3.75585 10.6569 4.25984 10.3601 4.54911L8.42063 6.43961C8.30279 6.55448 8.24902 6.71998 8.27684 6.88218L8.73468 9.55162C8.80474 9.96007 8.37602 10.2716 8.00921 10.0787L5.6119 8.81837C5.46624 8.74179 5.29222 8.74179 5.14656 8.81837L2.74926 10.0787C2.38244 10.2716 1.95373 9.96007 2.02378 9.55162L2.48162 6.88218C2.50944 6.71998 2.45567 6.55448 2.33783 6.43961L0.398367 4.54911C0.101608 4.25984 0.265363 3.75585 0.675473 3.69626L3.35574 3.3068C3.5186 3.28313 3.65938 3.18085 3.73221 3.03327L4.93086 0.60454ZM16.9309 0.60454C17.1143 0.232917 17.6442 0.232917 17.8276 0.60454L19.0263 3.03327C19.0991 3.18085 19.2399 3.28313 19.4027 3.3068L22.083 3.69626C22.4931 3.75585 22.6569 4.25984 22.3601 4.54911L20.4206 6.43961C20.3028 6.55448 20.249 6.71998 20.2768 6.88218L20.7347 9.55162C20.8047 9.96007 20.376 10.2716 20.0092 10.0787L17.6119 8.81837C17.4662 8.74179 17.2922 8.74179 17.1466 8.81837L14.7493 10.0787C14.3824 10.2716 13.9537 9.96007 14.0238 9.55162L14.4816 6.88218C14.5094 6.71998 14.4557 6.55448 14.3378 6.43961L12.3984 4.54911C12.1016 4.25984 12.2654 3.75585 12.6755 3.69626L15.3557 3.3068C15.5186 3.28313 15.6594 3.18085 15.7322 3.03327L16.9309 0.60454ZM28.9309 0.60454C29.1143 0.232917 29.6442 0.232917 29.8276 0.60454L31.0263 3.03327C31.0991 3.18085 31.2399 3.28313 31.4027 3.3068L34.083 3.69626C34.4931 3.75585 34.6569 4.25984 34.3601 4.54911L32.4206 6.43961C32.3028 6.55448 32.249 6.71998 32.2768 6.88218L32.7347 9.55162C32.8047 9.96007 32.376 10.2716 32.0092 10.0787L29.6119 8.81837C29.4662 8.74179 29.2922 8.74179 29.1466 8.81837L26.7493 10.0787C26.3824 10.2716 25.9537 9.96007 26.0238 9.55162L26.4816 6.88218C26.5094 6.71998 26.4557 6.55448 26.3378 6.43961L24.3984 4.54911C24.1016 4.25984 24.2654 3.75585 24.6755 3.69626L27.3557 3.3068C27.5186 3.28313 27.6594 3.18085 27.7322 3.03327L28.9309 0.60454ZM40.9309 0.60454C41.1143 0.232917 41.6442 0.232917 41.8276 0.60454L43.0262 3.03327C43.0991 3.18085 43.2399 3.28313 43.4027 3.3068L46.083 3.69626C46.4931 3.75585 46.6569 4.25984 46.3601 4.54911L44.4206 6.43961C44.3028 6.55448 44.249 6.71998 44.2768 6.88218L44.7347 9.55162C44.8047 9.96007 44.376 10.2716 44.0092 10.0787L41.6119 8.81837C41.4662 8.74179 41.2922 8.74179 41.1466 8.81837L38.7493 10.0787C38.3824 10.2716 37.9537 9.96007 38.0238 9.55162L38.4816 6.88218C38.5094 6.71998 38.4557 6.55448 38.3378 6.43961L36.3984 4.54911C36.1016 4.25984 36.2654 3.75585 36.6755 3.69626L39.3557 3.3068C39.5186 3.28313 39.6594 3.18085 39.7322 3.03327L40.9309 0.60454ZM52.9309 0.60454C53.1143 0.232917 53.6442 0.232917 53.8276 0.60454L55.0262 3.03327C55.0991 3.18085 55.2399 3.28313 55.4027 3.3068L58.083 3.69626C58.4931 3.75585 58.6569 4.25984 58.3601 4.54911L56.4206 6.43961C56.3028 6.55448 56.249 6.71998 56.2768 6.88218L56.7347 9.55162C56.8047 9.96007 56.376 10.2716 56.0092 10.0787L53.6119 8.81837C53.4662 8.74179 53.2922 8.74179 53.1466 8.81837L50.7493 10.0787C50.3824 10.2716 49.9537 9.96007 50.0238 9.55162L50.4816 6.88218C50.5094 6.71998 50.4557 6.55448 50.3378 6.43961L48.3984 4.54911C48.1016 4.25984 48.2654 3.75585 48.6755 3.69626L51.3557 3.3068C51.5186 3.28313 51.6594 3.18085 51.7322 3.03327L52.9309 0.60454Z" fill="#FFC700"/>
<path d="M4.93086 0.60454C5.11427 0.232917 5.64419 0.232917 5.8276 0.60454L7.02625 3.03327C7.09908 3.18085 7.23986 3.28313 7.40272 3.3068L10.083 3.69626C10.4931 3.75585 10.6569 4.25984 10.3601 4.54911L8.42063 6.43961C8.30279 6.55448 8.24902 6.71998 8.27684 6.88218L8.73468 9.55162C8.80474 9.96007 8.37602 10.2716 8.00921 10.0787L5.6119 8.81837C5.46624 8.74179 5.29222 8.74179 5.14656 8.81837L2.74926 10.0787C2.38244 10.2716 1.95373 9.96007 2.02378 9.55162L2.48162 6.88218C2.50944 6.71998 2.45567 6.55448 2.33783 6.43961L0.398367 4.54911C0.101608 4.25984 0.265363 3.75585 0.675473 3.69626L3.35574 3.3068C3.5186 3.28313 3.65938 3.18085 3.73221 3.03327L4.93086 0.60454ZM16.9309 0.60454C17.1143 0.232917 17.6442 0.232917 17.8276 0.60454L19.0263 3.03327C19.0991 3.18085 19.2399 3.28313 19.4027 3.3068L22.083 3.69626C22.4931 3.75585 22.6569 4.25984 22.3601 4.54911L20.4206 6.43961C20.3028 6.55448 20.249 6.71998 20.2768 6.88218L20.7347 9.55162C20.8047 9.96007 20.376 10.2716 20.0092 10.0787L17.6119 8.81837C17.4662 8.74179 17.2922 8.74179 17.1466 8.81837L14.7493 10.0787C14.3824 10.2716 13.9537 9.96007 14.0238 9.55162L14.4816 6.88218C14.5094 6.71998 14.4557 6.55448 14.3378 6.43961L12.3984 4.54911C12.1016 4.25984 12.2654 3.75585 12.6755 3.69626L15.3557 3.3068C15.5186 3.28313 15.6594 3.18085 15.7322 3.03327L16.9309 0.60454ZM28.9309 0.60454C29.1143 0.232917 29.6442 0.232917 29.8276 0.60454L31.0263 3.03327C31.0991 3.18085 31.2399 3.28313 31.4027 3.3068L34.083 3.69626C34.4931 3.75585 34.6569 4.25984 34.3601 4.54911L32.4206 6.43961C32.3028 6.55448 32.249 6.71998 32.2768 6.88218L32.7347 9.55162C32.8047 9.96007 32.376 10.2716 32.0092 10.0787L29.6119 8.81837C29.4662 8.74179 29.2922 8.74179 29.1466 8.81837L26.7493 10.0787C26.3824 10.2716 25.9537 9.96007 26.0238 9.55162L26.4816 6.88218C26.5094 6.71998 26.4557 6.55448 26.3378 6.43961L24.3984 4.54911C24.1016 4.25984 24.2654 3.75585 24.6755 3.69626L27.3557 3.3068C27.5186 3.28313 27.6594 3.18085 27.7322 3.03327L28.9309 0.60454ZM40.9309 0.60454C41.1143 0.232917 41.6442 0.232917 41.8276 0.60454L43.0262 3.03327C43.0991 3.18085 43.2399 3.28313 43.4027 3.3068L46.083 3.69626C46.4931 3.75585 46.6569 4.25984 46.3601 4.54911L44.4206 6.43961C44.3028 6.55448 44.249 6.71998 44.2768 6.88218L44.7347 9.55162C44.8047 9.96007 44.376 10.2716 44.0092 10.0787L41.6119 8.81837C41.4662 8.74179 41.2922 8.74179 41.1466 8.81837L38.7493 10.0787C38.3824 10.2716 37.9537 9.96007 38.0238 9.55162L38.4816 6.88218C38.5094 6.71998 38.4557 6.55448 38.3378 6.43961L36.3984 4.54911C36.1016 4.25984 36.2654 3.75585 36.6755 3.69626L39.3557 3.3068C39.5186 3.28313 39.6594 3.18085 39.7322 3.03327L40.9309 0.60454ZM52.9309 0.60454C53.1143 0.232917 53.6442 0.232917 53.8276 0.60454L55.0262 3.03327C55.0991 3.18085 55.2399 3.28313 55.4027 3.3068L58.083 3.69626C58.4931 3.75585 58.6569 4.25984 58.3601 4.54911L56.4206 6.43961C56.3028 6.55448 56.249 6.71998 56.2768 6.88218L56.7347 9.55162C56.8047 9.96007 56.376 10.2716 56.0092 10.0787L53.6119 8.81837C53.4662 8.74179 53.2922 8.74179 53.1466 8.81837L50.7493 10.0787C50.3824 10.2716 49.9537 9.96007 50.0238 9.55162L50.4816 6.88218C50.5094 6.71998 50.4557 6.55448 50.3378 6.43961L48.3984 4.54911C48.1016 4.25984 48.2654 3.75585 48.6755 3.69626L51.3557 3.3068C51.5186 3.28313 51.6594 3.18085 51.7322 3.03327L52.9309 0.60454Z" fill="#FFC700"/>
</svg>
