<svg width="361" height="25" viewBox="0 0 361 25" fill="none" xmlns="http://www.w3.org/2000/svg">
<rect width="360" height="24" transform="translate(0.511658 0.231537)" fill="white"/>
<path d="M322.242 7.24423V17.2315H320.595V9.19931L318.154 10.0265V8.66611L322.044 7.24423H322.242ZM332.373 15.919V17.2315H325.701V16.1036L328.941 12.5694C329.297 12.1684 329.577 11.822 329.782 11.5304C329.987 11.2387 330.131 10.9767 330.213 10.7442C330.299 10.5073 330.343 10.2771 330.343 10.0538C330.343 9.73935 330.283 9.46363 330.165 9.22665C330.051 8.98512 329.882 8.79599 329.659 8.65927C329.436 8.518 329.165 8.44736 328.846 8.44736C328.477 8.44736 328.167 8.52711 327.916 8.68661C327.665 8.84612 327.476 9.06715 327.349 9.3497C327.221 9.6277 327.157 9.94671 327.157 10.3067H325.51C325.51 9.72796 325.642 9.19931 325.906 8.72079C326.171 8.23772 326.553 7.85491 327.055 7.57236C327.556 7.28525 328.16 7.14169 328.866 7.14169C329.532 7.14169 330.097 7.25335 330.561 7.47665C331.026 7.69996 331.379 8.01669 331.621 8.42685C331.867 8.83701 331.99 9.32236 331.99 9.8829C331.99 10.1928 331.94 10.5004 331.84 10.8058C331.74 11.1111 331.596 11.4164 331.409 11.7218C331.227 12.0226 331.01 12.3256 330.76 12.631C330.509 12.9317 330.233 13.2371 329.933 13.547L327.779 15.919H332.373ZM333.774 16.4112C333.774 16.156 333.861 15.9418 334.034 15.7686C334.207 15.5909 334.442 15.502 334.738 15.502C335.039 15.502 335.274 15.5909 335.442 15.7686C335.615 15.9418 335.702 16.156 335.702 16.4112C335.702 16.6664 335.615 16.8806 335.442 17.0538C335.274 17.227 335.039 17.3136 334.738 17.3136C334.442 17.3136 334.207 17.227 334.034 17.0538C333.861 16.8806 333.774 16.6664 333.774 16.4112ZM333.781 10.587C333.781 10.3318 333.868 10.1176 334.041 9.94443C334.214 9.76669 334.449 9.67783 334.745 9.67783C335.046 9.67783 335.281 9.76669 335.449 9.94443C335.622 10.1176 335.709 10.3318 335.709 10.587C335.709 10.8422 335.622 11.0564 335.449 11.2296C335.281 11.4028 335.046 11.4893 334.745 11.4893C334.449 11.4893 334.214 11.4028 334.041 11.2296C333.868 11.0564 333.781 10.8422 333.781 10.587ZM339.284 11.5099H340.268C340.651 11.5099 340.968 11.4438 341.219 11.3116C341.474 11.1795 341.663 10.9972 341.786 10.7647C341.909 10.5323 341.971 10.2657 341.971 9.96494C341.971 9.65048 341.914 9.3816 341.8 9.15829C341.69 8.93043 341.522 8.75497 341.294 8.63193C341.071 8.50888 340.786 8.44736 340.439 8.44736C340.148 8.44736 339.883 8.5066 339.646 8.62509C339.414 8.73902 339.229 8.90309 339.093 9.11728C338.956 9.32691 338.888 9.57757 338.888 9.86923H337.233C337.233 9.34059 337.372 8.87119 337.65 8.46103C337.928 8.05087 338.307 7.72958 338.785 7.49716C339.268 7.26018 339.81 7.14169 340.412 7.14169C341.055 7.14169 341.615 7.24879 342.094 7.46298C342.577 7.67262 342.953 7.98707 343.222 8.40634C343.49 8.82561 343.625 9.34514 343.625 9.96494C343.625 10.2475 343.559 10.5346 343.427 10.8263C343.295 11.1179 343.099 11.3845 342.839 11.6261C342.579 11.863 342.255 12.0567 341.868 12.2071C341.481 12.353 341.032 12.4259 340.521 12.4259H339.284V11.5099ZM339.284 12.795V11.8927H340.521C341.105 11.8927 341.602 11.961 342.012 12.0977C342.426 12.2345 342.764 12.4236 343.023 12.6651C343.283 12.9021 343.472 13.1733 343.591 13.4786C343.714 13.7839 343.775 14.1075 343.775 14.4493C343.775 14.9142 343.691 15.3289 343.522 15.6935C343.358 16.0535 343.124 16.3588 342.818 16.6095C342.513 16.8601 342.155 17.0492 341.745 17.1768C341.339 17.3045 340.897 17.3683 340.419 17.3683C339.99 17.3683 339.58 17.309 339.188 17.1905C338.796 17.072 338.446 16.8966 338.136 16.6642C337.826 16.4272 337.58 16.1332 337.397 15.7823C337.22 15.4268 337.131 15.0167 337.131 14.5518H338.778C338.778 14.8481 338.847 15.1101 338.983 15.338C339.125 15.5613 339.321 15.7367 339.571 15.8643C339.826 15.992 340.118 16.0558 340.446 16.0558C340.793 16.0558 341.091 15.9942 341.342 15.8712C341.592 15.7481 341.784 15.5658 341.916 15.3243C342.053 15.0828 342.121 14.7911 342.121 14.4493C342.121 14.0619 342.046 13.7475 341.895 13.506C341.745 13.2644 341.531 13.0867 341.253 12.9727C340.975 12.8543 340.647 12.795 340.268 12.795H339.284ZM351.794 11.421V13.0479C351.794 13.8272 351.716 14.4926 351.561 15.044C351.411 15.5909 351.192 16.0352 350.905 16.377C350.618 16.7188 350.274 16.9695 349.873 17.129C349.477 17.2885 349.032 17.3683 348.54 17.3683C348.148 17.3683 347.783 17.3181 347.446 17.2179C347.114 17.1176 346.813 16.9604 346.544 16.7462C346.275 16.532 346.045 16.2563 345.853 15.919C345.667 15.5772 345.521 15.1694 345.416 14.6954C345.316 14.2214 345.266 13.6723 345.266 13.0479V11.421C345.266 10.6371 345.343 9.97633 345.498 9.43857C345.653 8.89625 345.874 8.45647 346.161 8.11923C346.448 7.77744 346.79 7.52906 347.186 7.37411C347.588 7.21917 348.034 7.14169 348.526 7.14169C348.923 7.14169 349.287 7.19182 349.62 7.29208C349.957 7.38779 350.258 7.54046 350.522 7.75009C350.791 7.95973 351.019 8.23316 351.206 8.5704C351.397 8.90309 351.543 9.30641 351.643 9.78036C351.744 10.2498 351.794 10.7966 351.794 11.421ZM350.146 13.2804V11.1749C350.146 10.7784 350.124 10.4298 350.078 10.129C350.032 9.82366 349.964 9.56617 349.873 9.35654C349.786 9.14234 349.677 8.96917 349.545 8.83701C349.413 8.70029 349.262 8.60231 349.094 8.54306C348.925 8.47926 348.736 8.44736 348.526 8.44736C348.271 8.44736 348.043 8.49749 347.843 8.59775C347.642 8.69345 347.474 8.8484 347.337 9.06259C347.2 9.27678 347.095 9.55934 347.022 9.91025C346.954 10.2566 346.92 10.6782 346.92 11.1749V13.2804C346.92 13.6814 346.943 14.0346 346.988 14.3399C347.034 14.6453 347.102 14.9073 347.193 15.1261C347.284 15.3403 347.394 15.518 347.521 15.6593C347.654 15.796 347.804 15.8963 347.973 15.9601C348.146 16.0239 348.335 16.0558 348.54 16.0558C348.8 16.0558 349.03 16.0056 349.23 15.9054C349.431 15.8051 349.6 15.6456 349.736 15.4268C349.873 15.2035 349.976 14.9142 350.044 14.5587C350.112 14.2032 350.146 13.7771 350.146 13.2804Z" fill="black" fill-opacity="0.7"/>
<path d="M322.242 7.24423V17.2315H320.595V9.19931L318.154 10.0265V8.66611L322.044 7.24423H322.242ZM332.373 15.919V17.2315H325.701V16.1036L328.941 12.5694C329.297 12.1684 329.577 11.822 329.782 11.5304C329.987 11.2387 330.131 10.9767 330.213 10.7442C330.299 10.5073 330.343 10.2771 330.343 10.0538C330.343 9.73935 330.283 9.46363 330.165 9.22665C330.051 8.98512 329.882 8.79599 329.659 8.65927C329.436 8.518 329.165 8.44736 328.846 8.44736C328.477 8.44736 328.167 8.52711 327.916 8.68661C327.665 8.84612 327.476 9.06715 327.349 9.3497C327.221 9.6277 327.157 9.94671 327.157 10.3067H325.51C325.51 9.72796 325.642 9.19931 325.906 8.72079C326.171 8.23772 326.553 7.85491 327.055 7.57236C327.556 7.28525 328.16 7.14169 328.866 7.14169C329.532 7.14169 330.097 7.25335 330.561 7.47665C331.026 7.69996 331.379 8.01669 331.621 8.42685C331.867 8.83701 331.99 9.32236 331.99 9.8829C331.99 10.1928 331.94 10.5004 331.84 10.8058C331.74 11.1111 331.596 11.4164 331.409 11.7218C331.227 12.0226 331.01 12.3256 330.76 12.631C330.509 12.9317 330.233 13.2371 329.933 13.547L327.779 15.919H332.373ZM333.774 16.4112C333.774 16.156 333.861 15.9418 334.034 15.7686C334.207 15.5909 334.442 15.502 334.738 15.502C335.039 15.502 335.274 15.5909 335.442 15.7686C335.615 15.9418 335.702 16.156 335.702 16.4112C335.702 16.6664 335.615 16.8806 335.442 17.0538C335.274 17.227 335.039 17.3136 334.738 17.3136C334.442 17.3136 334.207 17.227 334.034 17.0538C333.861 16.8806 333.774 16.6664 333.774 16.4112ZM333.781 10.587C333.781 10.3318 333.868 10.1176 334.041 9.94443C334.214 9.76669 334.449 9.67783 334.745 9.67783C335.046 9.67783 335.281 9.76669 335.449 9.94443C335.622 10.1176 335.709 10.3318 335.709 10.587C335.709 10.8422 335.622 11.0564 335.449 11.2296C335.281 11.4028 335.046 11.4893 334.745 11.4893C334.449 11.4893 334.214 11.4028 334.041 11.2296C333.868 11.0564 333.781 10.8422 333.781 10.587ZM339.284 11.5099H340.268C340.651 11.5099 340.968 11.4438 341.219 11.3116C341.474 11.1795 341.663 10.9972 341.786 10.7647C341.909 10.5323 341.971 10.2657 341.971 9.96494C341.971 9.65048 341.914 9.3816 341.8 9.15829C341.69 8.93043 341.522 8.75497 341.294 8.63193C341.071 8.50888 340.786 8.44736 340.439 8.44736C340.148 8.44736 339.883 8.5066 339.646 8.62509C339.414 8.73902 339.229 8.90309 339.093 9.11728C338.956 9.32691 338.888 9.57757 338.888 9.86923H337.233C337.233 9.34059 337.372 8.87119 337.65 8.46103C337.928 8.05087 338.307 7.72958 338.785 7.49716C339.268 7.26018 339.81 7.14169 340.412 7.14169C341.055 7.14169 341.615 7.24879 342.094 7.46298C342.577 7.67262 342.953 7.98707 343.222 8.40634C343.49 8.82561 343.625 9.34514 343.625 9.96494C343.625 10.2475 343.559 10.5346 343.427 10.8263C343.295 11.1179 343.099 11.3845 342.839 11.6261C342.579 11.863 342.255 12.0567 341.868 12.2071C341.481 12.353 341.032 12.4259 340.521 12.4259H339.284V11.5099ZM339.284 12.795V11.8927H340.521C341.105 11.8927 341.602 11.961 342.012 12.0977C342.426 12.2345 342.764 12.4236 343.023 12.6651C343.283 12.9021 343.472 13.1733 343.591 13.4786C343.714 13.7839 343.775 14.1075 343.775 14.4493C343.775 14.9142 343.691 15.3289 343.522 15.6935C343.358 16.0535 343.124 16.3588 342.818 16.6095C342.513 16.8601 342.155 17.0492 341.745 17.1768C341.339 17.3045 340.897 17.3683 340.419 17.3683C339.99 17.3683 339.58 17.309 339.188 17.1905C338.796 17.072 338.446 16.8966 338.136 16.6642C337.826 16.4272 337.58 16.1332 337.397 15.7823C337.22 15.4268 337.131 15.0167 337.131 14.5518H338.778C338.778 14.8481 338.847 15.1101 338.983 15.338C339.125 15.5613 339.321 15.7367 339.571 15.8643C339.826 15.992 340.118 16.0558 340.446 16.0558C340.793 16.0558 341.091 15.9942 341.342 15.8712C341.592 15.7481 341.784 15.5658 341.916 15.3243C342.053 15.0828 342.121 14.7911 342.121 14.4493C342.121 14.0619 342.046 13.7475 341.895 13.506C341.745 13.2644 341.531 13.0867 341.253 12.9727C340.975 12.8543 340.647 12.795 340.268 12.795H339.284ZM351.794 11.421V13.0479C351.794 13.8272 351.716 14.4926 351.561 15.044C351.411 15.5909 351.192 16.0352 350.905 16.377C350.618 16.7188 350.274 16.9695 349.873 17.129C349.477 17.2885 349.032 17.3683 348.54 17.3683C348.148 17.3683 347.783 17.3181 347.446 17.2179C347.114 17.1176 346.813 16.9604 346.544 16.7462C346.275 16.532 346.045 16.2563 345.853 15.919C345.667 15.5772 345.521 15.1694 345.416 14.6954C345.316 14.2214 345.266 13.6723 345.266 13.0479V11.421C345.266 10.6371 345.343 9.97633 345.498 9.43857C345.653 8.89625 345.874 8.45647 346.161 8.11923C346.448 7.77744 346.79 7.52906 347.186 7.37411C347.588 7.21917 348.034 7.14169 348.526 7.14169C348.923 7.14169 349.287 7.19182 349.62 7.29208C349.957 7.38779 350.258 7.54046 350.522 7.75009C350.791 7.95973 351.019 8.23316 351.206 8.5704C351.397 8.90309 351.543 9.30641 351.643 9.78036C351.744 10.2498 351.794 10.7966 351.794 11.421ZM350.146 13.2804V11.1749C350.146 10.7784 350.124 10.4298 350.078 10.129C350.032 9.82366 349.964 9.56617 349.873 9.35654C349.786 9.14234 349.677 8.96917 349.545 8.83701C349.413 8.70029 349.262 8.60231 349.094 8.54306C348.925 8.47926 348.736 8.44736 348.526 8.44736C348.271 8.44736 348.043 8.49749 347.843 8.59775C347.642 8.69345 347.474 8.8484 347.337 9.06259C347.2 9.27678 347.095 9.55934 347.022 9.91025C346.954 10.2566 346.92 10.6782 346.92 11.1749V13.2804C346.92 13.6814 346.943 14.0346 346.988 14.3399C347.034 14.6453 347.102 14.9073 347.193 15.1261C347.284 15.3403 347.394 15.518 347.521 15.6593C347.654 15.796 347.804 15.8963 347.973 15.9601C348.146 16.0239 348.335 16.0558 348.54 16.0558C348.8 16.0558 349.03 16.0056 349.23 15.9054C349.431 15.8051 349.6 15.6456 349.736 15.4268C349.873 15.2035 349.976 14.9142 350.044 14.5587C350.112 14.2032 350.146 13.7771 350.146 13.2804Z" fill="black" fill-opacity="0.7"/>
<path d="M322.242 7.24423V17.2315H320.595V9.19931L318.154 10.0265V8.66611L322.044 7.24423H322.242ZM332.373 15.919V17.2315H325.701V16.1036L328.941 12.5694C329.297 12.1684 329.577 11.822 329.782 11.5304C329.987 11.2387 330.131 10.9767 330.213 10.7442C330.299 10.5073 330.343 10.2771 330.343 10.0538C330.343 9.73935 330.283 9.46363 330.165 9.22665C330.051 8.98512 329.882 8.79599 329.659 8.65927C329.436 8.518 329.165 8.44736 328.846 8.44736C328.477 8.44736 328.167 8.52711 327.916 8.68661C327.665 8.84612 327.476 9.06715 327.349 9.3497C327.221 9.6277 327.157 9.94671 327.157 10.3067H325.51C325.51 9.72796 325.642 9.19931 325.906 8.72079C326.171 8.23772 326.553 7.85491 327.055 7.57236C327.556 7.28525 328.16 7.14169 328.866 7.14169C329.532 7.14169 330.097 7.25335 330.561 7.47665C331.026 7.69996 331.379 8.01669 331.621 8.42685C331.867 8.83701 331.99 9.32236 331.99 9.8829C331.99 10.1928 331.94 10.5004 331.84 10.8058C331.74 11.1111 331.596 11.4164 331.409 11.7218C331.227 12.0226 331.01 12.3256 330.76 12.631C330.509 12.9317 330.233 13.2371 329.933 13.547L327.779 15.919H332.373ZM333.774 16.4112C333.774 16.156 333.861 15.9418 334.034 15.7686C334.207 15.5909 334.442 15.502 334.738 15.502C335.039 15.502 335.274 15.5909 335.442 15.7686C335.615 15.9418 335.702 16.156 335.702 16.4112C335.702 16.6664 335.615 16.8806 335.442 17.0538C335.274 17.227 335.039 17.3136 334.738 17.3136C334.442 17.3136 334.207 17.227 334.034 17.0538C333.861 16.8806 333.774 16.6664 333.774 16.4112ZM333.781 10.587C333.781 10.3318 333.868 10.1176 334.041 9.94443C334.214 9.76669 334.449 9.67783 334.745 9.67783C335.046 9.67783 335.281 9.76669 335.449 9.94443C335.622 10.1176 335.709 10.3318 335.709 10.587C335.709 10.8422 335.622 11.0564 335.449 11.2296C335.281 11.4028 335.046 11.4893 334.745 11.4893C334.449 11.4893 334.214 11.4028 334.041 11.2296C333.868 11.0564 333.781 10.8422 333.781 10.587ZM339.284 11.5099H340.268C340.651 11.5099 340.968 11.4438 341.219 11.3116C341.474 11.1795 341.663 10.9972 341.786 10.7647C341.909 10.5323 341.971 10.2657 341.971 9.96494C341.971 9.65048 341.914 9.3816 341.8 9.15829C341.69 8.93043 341.522 8.75497 341.294 8.63193C341.071 8.50888 340.786 8.44736 340.439 8.44736C340.148 8.44736 339.883 8.5066 339.646 8.62509C339.414 8.73902 339.229 8.90309 339.093 9.11728C338.956 9.32691 338.888 9.57757 338.888 9.86923H337.233C337.233 9.34059 337.372 8.87119 337.65 8.46103C337.928 8.05087 338.307 7.72958 338.785 7.49716C339.268 7.26018 339.81 7.14169 340.412 7.14169C341.055 7.14169 341.615 7.24879 342.094 7.46298C342.577 7.67262 342.953 7.98707 343.222 8.40634C343.49 8.82561 343.625 9.34514 343.625 9.96494C343.625 10.2475 343.559 10.5346 343.427 10.8263C343.295 11.1179 343.099 11.3845 342.839 11.6261C342.579 11.863 342.255 12.0567 341.868 12.2071C341.481 12.353 341.032 12.4259 340.521 12.4259H339.284V11.5099ZM339.284 12.795V11.8927H340.521C341.105 11.8927 341.602 11.961 342.012 12.0977C342.426 12.2345 342.764 12.4236 343.023 12.6651C343.283 12.9021 343.472 13.1733 343.591 13.4786C343.714 13.7839 343.775 14.1075 343.775 14.4493C343.775 14.9142 343.691 15.3289 343.522 15.6935C343.358 16.0535 343.124 16.3588 342.818 16.6095C342.513 16.8601 342.155 17.0492 341.745 17.1768C341.339 17.3045 340.897 17.3683 340.419 17.3683C339.99 17.3683 339.58 17.309 339.188 17.1905C338.796 17.072 338.446 16.8966 338.136 16.6642C337.826 16.4272 337.58 16.1332 337.397 15.7823C337.22 15.4268 337.131 15.0167 337.131 14.5518H338.778C338.778 14.8481 338.847 15.1101 338.983 15.338C339.125 15.5613 339.321 15.7367 339.571 15.8643C339.826 15.992 340.118 16.0558 340.446 16.0558C340.793 16.0558 341.091 15.9942 341.342 15.8712C341.592 15.7481 341.784 15.5658 341.916 15.3243C342.053 15.0828 342.121 14.7911 342.121 14.4493C342.121 14.0619 342.046 13.7475 341.895 13.506C341.745 13.2644 341.531 13.0867 341.253 12.9727C340.975 12.8543 340.647 12.795 340.268 12.795H339.284ZM351.794 11.421V13.0479C351.794 13.8272 351.716 14.4926 351.561 15.044C351.411 15.5909 351.192 16.0352 350.905 16.377C350.618 16.7188 350.274 16.9695 349.873 17.129C349.477 17.2885 349.032 17.3683 348.54 17.3683C348.148 17.3683 347.783 17.3181 347.446 17.2179C347.114 17.1176 346.813 16.9604 346.544 16.7462C346.275 16.532 346.045 16.2563 345.853 15.919C345.667 15.5772 345.521 15.1694 345.416 14.6954C345.316 14.2214 345.266 13.6723 345.266 13.0479V11.421C345.266 10.6371 345.343 9.97633 345.498 9.43857C345.653 8.89625 345.874 8.45647 346.161 8.11923C346.448 7.77744 346.79 7.52906 347.186 7.37411C347.588 7.21917 348.034 7.14169 348.526 7.14169C348.923 7.14169 349.287 7.19182 349.62 7.29208C349.957 7.38779 350.258 7.54046 350.522 7.75009C350.791 7.95973 351.019 8.23316 351.206 8.5704C351.397 8.90309 351.543 9.30641 351.643 9.78036C351.744 10.2498 351.794 10.7966 351.794 11.421ZM350.146 13.2804V11.1749C350.146 10.7784 350.124 10.4298 350.078 10.129C350.032 9.82366 349.964 9.56617 349.873 9.35654C349.786 9.14234 349.677 8.96917 349.545 8.83701C349.413 8.70029 349.262 8.60231 349.094 8.54306C348.925 8.47926 348.736 8.44736 348.526 8.44736C348.271 8.44736 348.043 8.49749 347.843 8.59775C347.642 8.69345 347.474 8.8484 347.337 9.06259C347.2 9.27678 347.095 9.55934 347.022 9.91025C346.954 10.2566 346.92 10.6782 346.92 11.1749V13.2804C346.92 13.6814 346.943 14.0346 346.988 14.3399C347.034 14.6453 347.102 14.9073 347.193 15.1261C347.284 15.3403 347.394 15.518 347.521 15.6593C347.654 15.796 347.804 15.8963 347.973 15.9601C348.146 16.0239 348.335 16.0558 348.54 16.0558C348.8 16.0558 349.03 16.0056 349.23 15.9054C349.431 15.8051 349.6 15.6456 349.736 15.4268C349.873 15.2035 349.976 14.9142 350.044 14.5587C350.112 14.2032 350.146 13.7771 350.146 13.2804Z" fill="black" fill-opacity="0.7"/>
<path d="M322.242 7.24423V17.2315H320.595V9.19931L318.154 10.0265V8.66611L322.044 7.24423H322.242ZM332.373 15.919V17.2315H325.701V16.1036L328.941 12.5694C329.297 12.1684 329.577 11.822 329.782 11.5304C329.987 11.2387 330.131 10.9767 330.213 10.7442C330.299 10.5073 330.343 10.2771 330.343 10.0538C330.343 9.73935 330.283 9.46363 330.165 9.22665C330.051 8.98512 329.882 8.79599 329.659 8.65927C329.436 8.518 329.165 8.44736 328.846 8.44736C328.477 8.44736 328.167 8.52711 327.916 8.68661C327.665 8.84612 327.476 9.06715 327.349 9.3497C327.221 9.6277 327.157 9.94671 327.157 10.3067H325.51C325.51 9.72796 325.642 9.19931 325.906 8.72079C326.171 8.23772 326.553 7.85491 327.055 7.57236C327.556 7.28525 328.16 7.14169 328.866 7.14169C329.532 7.14169 330.097 7.25335 330.561 7.47665C331.026 7.69996 331.379 8.01669 331.621 8.42685C331.867 8.83701 331.99 9.32236 331.99 9.8829C331.99 10.1928 331.94 10.5004 331.84 10.8058C331.74 11.1111 331.596 11.4164 331.409 11.7218C331.227 12.0226 331.01 12.3256 330.76 12.631C330.509 12.9317 330.233 13.2371 329.933 13.547L327.779 15.919H332.373ZM333.774 16.4112C333.774 16.156 333.861 15.9418 334.034 15.7686C334.207 15.5909 334.442 15.502 334.738 15.502C335.039 15.502 335.274 15.5909 335.442 15.7686C335.615 15.9418 335.702 16.156 335.702 16.4112C335.702 16.6664 335.615 16.8806 335.442 17.0538C335.274 17.227 335.039 17.3136 334.738 17.3136C334.442 17.3136 334.207 17.227 334.034 17.0538C333.861 16.8806 333.774 16.6664 333.774 16.4112ZM333.781 10.587C333.781 10.3318 333.868 10.1176 334.041 9.94443C334.214 9.76669 334.449 9.67783 334.745 9.67783C335.046 9.67783 335.281 9.76669 335.449 9.94443C335.622 10.1176 335.709 10.3318 335.709 10.587C335.709 10.8422 335.622 11.0564 335.449 11.2296C335.281 11.4028 335.046 11.4893 334.745 11.4893C334.449 11.4893 334.214 11.4028 334.041 11.2296C333.868 11.0564 333.781 10.8422 333.781 10.587ZM339.284 11.5099H340.268C340.651 11.5099 340.968 11.4438 341.219 11.3116C341.474 11.1795 341.663 10.9972 341.786 10.7647C341.909 10.5323 341.971 10.2657 341.971 9.96494C341.971 9.65048 341.914 9.3816 341.8 9.15829C341.69 8.93043 341.522 8.75497 341.294 8.63193C341.071 8.50888 340.786 8.44736 340.439 8.44736C340.148 8.44736 339.883 8.5066 339.646 8.62509C339.414 8.73902 339.229 8.90309 339.093 9.11728C338.956 9.32691 338.888 9.57757 338.888 9.86923H337.233C337.233 9.34059 337.372 8.87119 337.65 8.46103C337.928 8.05087 338.307 7.72958 338.785 7.49716C339.268 7.26018 339.81 7.14169 340.412 7.14169C341.055 7.14169 341.615 7.24879 342.094 7.46298C342.577 7.67262 342.953 7.98707 343.222 8.40634C343.49 8.82561 343.625 9.34514 343.625 9.96494C343.625 10.2475 343.559 10.5346 343.427 10.8263C343.295 11.1179 343.099 11.3845 342.839 11.6261C342.579 11.863 342.255 12.0567 341.868 12.2071C341.481 12.353 341.032 12.4259 340.521 12.4259H339.284V11.5099ZM339.284 12.795V11.8927H340.521C341.105 11.8927 341.602 11.961 342.012 12.0977C342.426 12.2345 342.764 12.4236 343.023 12.6651C343.283 12.9021 343.472 13.1733 343.591 13.4786C343.714 13.7839 343.775 14.1075 343.775 14.4493C343.775 14.9142 343.691 15.3289 343.522 15.6935C343.358 16.0535 343.124 16.3588 342.818 16.6095C342.513 16.8601 342.155 17.0492 341.745 17.1768C341.339 17.3045 340.897 17.3683 340.419 17.3683C339.99 17.3683 339.58 17.309 339.188 17.1905C338.796 17.072 338.446 16.8966 338.136 16.6642C337.826 16.4272 337.58 16.1332 337.397 15.7823C337.22 15.4268 337.131 15.0167 337.131 14.5518H338.778C338.778 14.8481 338.847 15.1101 338.983 15.338C339.125 15.5613 339.321 15.7367 339.571 15.8643C339.826 15.992 340.118 16.0558 340.446 16.0558C340.793 16.0558 341.091 15.9942 341.342 15.8712C341.592 15.7481 341.784 15.5658 341.916 15.3243C342.053 15.0828 342.121 14.7911 342.121 14.4493C342.121 14.0619 342.046 13.7475 341.895 13.506C341.745 13.2644 341.531 13.0867 341.253 12.9727C340.975 12.8543 340.647 12.795 340.268 12.795H339.284ZM351.794 11.421V13.0479C351.794 13.8272 351.716 14.4926 351.561 15.044C351.411 15.5909 351.192 16.0352 350.905 16.377C350.618 16.7188 350.274 16.9695 349.873 17.129C349.477 17.2885 349.032 17.3683 348.54 17.3683C348.148 17.3683 347.783 17.3181 347.446 17.2179C347.114 17.1176 346.813 16.9604 346.544 16.7462C346.275 16.532 346.045 16.2563 345.853 15.919C345.667 15.5772 345.521 15.1694 345.416 14.6954C345.316 14.2214 345.266 13.6723 345.266 13.0479V11.421C345.266 10.6371 345.343 9.97633 345.498 9.43857C345.653 8.89625 345.874 8.45647 346.161 8.11923C346.448 7.77744 346.79 7.52906 347.186 7.37411C347.588 7.21917 348.034 7.14169 348.526 7.14169C348.923 7.14169 349.287 7.19182 349.62 7.29208C349.957 7.38779 350.258 7.54046 350.522 7.75009C350.791 7.95973 351.019 8.23316 351.206 8.5704C351.397 8.90309 351.543 9.30641 351.643 9.78036C351.744 10.2498 351.794 10.7966 351.794 11.421ZM350.146 13.2804V11.1749C350.146 10.7784 350.124 10.4298 350.078 10.129C350.032 9.82366 349.964 9.56617 349.873 9.35654C349.786 9.14234 349.677 8.96917 349.545 8.83701C349.413 8.70029 349.262 8.60231 349.094 8.54306C348.925 8.47926 348.736 8.44736 348.526 8.44736C348.271 8.44736 348.043 8.49749 347.843 8.59775C347.642 8.69345 347.474 8.8484 347.337 9.06259C347.2 9.27678 347.095 9.55934 347.022 9.91025C346.954 10.2566 346.92 10.6782 346.92 11.1749V13.2804C346.92 13.6814 346.943 14.0346 346.988 14.3399C347.034 14.6453 347.102 14.9073 347.193 15.1261C347.284 15.3403 347.394 15.518 347.521 15.6593C347.654 15.796 347.804 15.8963 347.973 15.9601C348.146 16.0239 348.335 16.0558 348.54 16.0558C348.8 16.0558 349.03 16.0056 349.23 15.9054C349.431 15.8051 349.6 15.6456 349.736 15.4268C349.873 15.2035 349.976 14.9142 350.044 14.5587C350.112 14.2032 350.146 13.7771 350.146 13.2804Z" fill="black" fill-opacity="0.7"/>
<path d="M322.242 7.24423V17.2315H320.595V9.19931L318.154 10.0265V8.66611L322.044 7.24423H322.242ZM332.373 15.919V17.2315H325.701V16.1036L328.941 12.5694C329.297 12.1684 329.577 11.822 329.782 11.5304C329.987 11.2387 330.131 10.9767 330.213 10.7442C330.299 10.5073 330.343 10.2771 330.343 10.0538C330.343 9.73935 330.283 9.46363 330.165 9.22665C330.051 8.98512 329.882 8.79599 329.659 8.65927C329.436 8.518 329.165 8.44736 328.846 8.44736C328.477 8.44736 328.167 8.52711 327.916 8.68661C327.665 8.84612 327.476 9.06715 327.349 9.3497C327.221 9.6277 327.157 9.94671 327.157 10.3067H325.51C325.51 9.72796 325.642 9.19931 325.906 8.72079C326.171 8.23772 326.553 7.85491 327.055 7.57236C327.556 7.28525 328.16 7.14169 328.866 7.14169C329.532 7.14169 330.097 7.25335 330.561 7.47665C331.026 7.69996 331.379 8.01669 331.621 8.42685C331.867 8.83701 331.99 9.32236 331.99 9.8829C331.99 10.1928 331.94 10.5004 331.84 10.8058C331.74 11.1111 331.596 11.4164 331.409 11.7218C331.227 12.0226 331.01 12.3256 330.76 12.631C330.509 12.9317 330.233 13.2371 329.933 13.547L327.779 15.919H332.373ZM333.774 16.4112C333.774 16.156 333.861 15.9418 334.034 15.7686C334.207 15.5909 334.442 15.502 334.738 15.502C335.039 15.502 335.274 15.5909 335.442 15.7686C335.615 15.9418 335.702 16.156 335.702 16.4112C335.702 16.6664 335.615 16.8806 335.442 17.0538C335.274 17.227 335.039 17.3136 334.738 17.3136C334.442 17.3136 334.207 17.227 334.034 17.0538C333.861 16.8806 333.774 16.6664 333.774 16.4112ZM333.781 10.587C333.781 10.3318 333.868 10.1176 334.041 9.94443C334.214 9.76669 334.449 9.67783 334.745 9.67783C335.046 9.67783 335.281 9.76669 335.449 9.94443C335.622 10.1176 335.709 10.3318 335.709 10.587C335.709 10.8422 335.622 11.0564 335.449 11.2296C335.281 11.4028 335.046 11.4893 334.745 11.4893C334.449 11.4893 334.214 11.4028 334.041 11.2296C333.868 11.0564 333.781 10.8422 333.781 10.587ZM339.284 11.5099H340.268C340.651 11.5099 340.968 11.4438 341.219 11.3116C341.474 11.1795 341.663 10.9972 341.786 10.7647C341.909 10.5323 341.971 10.2657 341.971 9.96494C341.971 9.65048 341.914 9.3816 341.8 9.15829C341.69 8.93043 341.522 8.75497 341.294 8.63193C341.071 8.50888 340.786 8.44736 340.439 8.44736C340.148 8.44736 339.883 8.5066 339.646 8.62509C339.414 8.73902 339.229 8.90309 339.093 9.11728C338.956 9.32691 338.888 9.57757 338.888 9.86923H337.233C337.233 9.34059 337.372 8.87119 337.65 8.46103C337.928 8.05087 338.307 7.72958 338.785 7.49716C339.268 7.26018 339.81 7.14169 340.412 7.14169C341.055 7.14169 341.615 7.24879 342.094 7.46298C342.577 7.67262 342.953 7.98707 343.222 8.40634C343.49 8.82561 343.625 9.34514 343.625 9.96494C343.625 10.2475 343.559 10.5346 343.427 10.8263C343.295 11.1179 343.099 11.3845 342.839 11.6261C342.579 11.863 342.255 12.0567 341.868 12.2071C341.481 12.353 341.032 12.4259 340.521 12.4259H339.284V11.5099ZM339.284 12.795V11.8927H340.521C341.105 11.8927 341.602 11.961 342.012 12.0977C342.426 12.2345 342.764 12.4236 343.023 12.6651C343.283 12.9021 343.472 13.1733 343.591 13.4786C343.714 13.7839 343.775 14.1075 343.775 14.4493C343.775 14.9142 343.691 15.3289 343.522 15.6935C343.358 16.0535 343.124 16.3588 342.818 16.6095C342.513 16.8601 342.155 17.0492 341.745 17.1768C341.339 17.3045 340.897 17.3683 340.419 17.3683C339.99 17.3683 339.58 17.309 339.188 17.1905C338.796 17.072 338.446 16.8966 338.136 16.6642C337.826 16.4272 337.58 16.1332 337.397 15.7823C337.22 15.4268 337.131 15.0167 337.131 14.5518H338.778C338.778 14.8481 338.847 15.1101 338.983 15.338C339.125 15.5613 339.321 15.7367 339.571 15.8643C339.826 15.992 340.118 16.0558 340.446 16.0558C340.793 16.0558 341.091 15.9942 341.342 15.8712C341.592 15.7481 341.784 15.5658 341.916 15.3243C342.053 15.0828 342.121 14.7911 342.121 14.4493C342.121 14.0619 342.046 13.7475 341.895 13.506C341.745 13.2644 341.531 13.0867 341.253 12.9727C340.975 12.8543 340.647 12.795 340.268 12.795H339.284ZM351.794 11.421V13.0479C351.794 13.8272 351.716 14.4926 351.561 15.044C351.411 15.5909 351.192 16.0352 350.905 16.377C350.618 16.7188 350.274 16.9695 349.873 17.129C349.477 17.2885 349.032 17.3683 348.54 17.3683C348.148 17.3683 347.783 17.3181 347.446 17.2179C347.114 17.1176 346.813 16.9604 346.544 16.7462C346.275 16.532 346.045 16.2563 345.853 15.919C345.667 15.5772 345.521 15.1694 345.416 14.6954C345.316 14.2214 345.266 13.6723 345.266 13.0479V11.421C345.266 10.6371 345.343 9.97633 345.498 9.43857C345.653 8.89625 345.874 8.45647 346.161 8.11923C346.448 7.77744 346.79 7.52906 347.186 7.37411C347.588 7.21917 348.034 7.14169 348.526 7.14169C348.923 7.14169 349.287 7.19182 349.62 7.29208C349.957 7.38779 350.258 7.54046 350.522 7.75009C350.791 7.95973 351.019 8.23316 351.206 8.5704C351.397 8.90309 351.543 9.30641 351.643 9.78036C351.744 10.2498 351.794 10.7966 351.794 11.421ZM350.146 13.2804V11.1749C350.146 10.7784 350.124 10.4298 350.078 10.129C350.032 9.82366 349.964 9.56617 349.873 9.35654C349.786 9.14234 349.677 8.96917 349.545 8.83701C349.413 8.70029 349.262 8.60231 349.094 8.54306C348.925 8.47926 348.736 8.44736 348.526 8.44736C348.271 8.44736 348.043 8.49749 347.843 8.59775C347.642 8.69345 347.474 8.8484 347.337 9.06259C347.2 9.27678 347.095 9.55934 347.022 9.91025C346.954 10.2566 346.92 10.6782 346.92 11.1749V13.2804C346.92 13.6814 346.943 14.0346 346.988 14.3399C347.034 14.6453 347.102 14.9073 347.193 15.1261C347.284 15.3403 347.394 15.518 347.521 15.6593C347.654 15.796 347.804 15.8963 347.973 15.9601C348.146 16.0239 348.335 16.0558 348.54 16.0558C348.8 16.0558 349.03 16.0056 349.23 15.9054C349.431 15.8051 349.6 15.6456 349.736 15.4268C349.873 15.2035 349.976 14.9142 350.044 14.5587C350.112 14.2032 350.146 13.7771 350.146 13.2804Z" fill="black" fill-opacity="0.7"/>
<path fill-rule="evenodd" clip-rule="evenodd" d="M306.512 6.10654V5.23154L303.512 5.23154V6.10654H300.512V19.2315H309.512V6.10654H306.512Z" fill="black" fill-opacity="0.7"/>
<path fill-rule="evenodd" clip-rule="evenodd" d="M277.512 19.2315H291.512V5.23154L277.512 19.2315Z" fill="black" fill-opacity="0.7"/>
<path d="M257.489 8.24747L266.512 19.2315L275.534 8.24747C273.023 6.3541 269.899 5.23154 266.512 5.23154C263.125 5.23154 260 6.3541 257.489 8.24747Z" fill="black" fill-opacity="0.7"/>
</svg>
